# xmcd
# 
# Track frame offsets:
#     150
#     21005
#     48160
#     68447
#     103957
#     123470
#     153645
#     195370
#     227715
#     264605
# 
# Disc length: 4323
# 
# Revision: 3
# Processed by: cddbd v1.5.2PL0 Copyright (c) Steve Scherf et al.
# Submitted via: fre:ac v1.0.31
# 
DISCID=7f10e10a
DTITLE=Eric Clapton - One More Car, One More Rider Disc 2
DYEAR=2002
DGENRE=Rock/Pop
TTITLE0=I Want a Little Girl [Live]
TTITLE1=Badge [Live]
TTITLE2=Hoochie Coochie Man [Live]
TTITLE3=Have You Ever Loved a Woman? [Live]
TTITLE4=Cocaine [Live]
TTITLE5=Wonderful Tonight [Live]
TTITLE6=Layla [Live]
TTITLE7=Sunshine of Your Love [Live]
TTITLE8=Over the Rainbow [Live]
TTITLE9=Data: Video for "Badge"
EXTD=Location:  - UPC: 093624839729 - Catalogue number: 936248397-2 - Label: Reprise Records - ASIN: B000075AFJ - Release Date: 2002 11 04 - Discogs: a17827,m219925,r1986370 - MUSICBRAINZ_ALBUMID: 6d662950-460d-4091-99a8-085d5f555c4c - AMG:mn0000187478,mw00002270
EXTD=83 - Live on Tour 2001
EXTT0=
EXTT1=
EXTT2=
EXTT3=
EXTT4=
EXTT5=
EXTT6=
EXTT7=
EXTT8=
EXTT9=
PLAYORDER=
